<svg width="316" height="203" viewBox="0 0 316 203" fill="none" xmlns="http://www.w3.org/2000/svg">
<g id="octaveOne">
<g id="cOne">
<path id="Rectangle 43" d="M0 3H40.1114V195C40.1114 199.418 36.5297 203 32.1114 203H7.99999C3.58171 203 0 199.418 0 195V3Z" fill="#F5E2F0"/>
<path id="1" d="M19.9716 167.273V176H18.9148V168.381H18.8636L16.733 169.795V168.722L18.9148 167.273H19.9716Z" fill="black"/>
</g>
<g id="dOne">
<path id="Rectangle 39" d="M45.9813 3H86.0927V195C86.0927 199.418 82.511 203 78.0927 203H53.9813C49.563 203 45.9813 199.418 45.9813 195V3Z" fill="#F5E2F0"/>
<path id="2" d="M63.9034 176V175.233L66.7841 172.08C67.1222 171.71 67.4006 171.389 67.6193 171.116C67.8381 170.841 68 170.582 68.1051 170.341C68.2131 170.097 68.267 169.841 68.267 169.574C68.267 169.267 68.1932 169.001 68.0455 168.777C67.9006 168.553 67.7017 168.379 67.4489 168.257C67.196 168.135 66.9119 168.074 66.5966 168.074C66.2614 168.074 65.9688 168.143 65.7188 168.283C65.4716 168.419 65.2798 168.611 65.1435 168.858C65.0099 169.105 64.9432 169.395 64.9432 169.727H63.9375C63.9375 169.216 64.0554 168.767 64.2912 168.381C64.527 167.994 64.848 167.693 65.2543 167.477C65.6634 167.261 66.1222 167.153 66.6307 167.153C67.142 167.153 67.5952 167.261 67.9901 167.477C68.3849 167.693 68.6946 167.984 68.919 168.351C69.1435 168.717 69.2557 169.125 69.2557 169.574C69.2557 169.895 69.1974 170.209 69.081 170.516C68.9673 170.82 68.7685 171.159 68.4844 171.534C68.2031 171.906 67.8125 172.361 67.3125 172.898L65.3523 174.994V175.062H69.4091V176H63.9034Z" fill="black"/>
</g>
<g id="eOne">
<path id="Rectangle 41" d="M91.963 3H132.074V195C132.074 199.418 128.493 203 124.074 203H99.963C95.5447 203 91.963 199.418 91.963 195V3Z" fill="#F5E2F0"/>
<path id="3" d="M111.852 176.119C111.29 176.119 110.788 176.023 110.348 175.83C109.911 175.636 109.563 175.368 109.304 175.024C109.048 174.678 108.909 174.276 108.886 173.818H109.96C109.983 174.099 110.08 174.342 110.25 174.547C110.42 174.749 110.643 174.905 110.919 175.016C111.195 175.126 111.5 175.182 111.835 175.182C112.21 175.182 112.543 175.116 112.832 174.986C113.122 174.855 113.349 174.673 113.514 174.44C113.679 174.207 113.761 173.938 113.761 173.631C113.761 173.31 113.682 173.027 113.523 172.783C113.364 172.536 113.131 172.342 112.824 172.203C112.517 172.064 112.142 171.994 111.699 171.994H111V171.057H111.699C112.045 171.057 112.349 170.994 112.611 170.869C112.875 170.744 113.081 170.568 113.229 170.341C113.379 170.114 113.455 169.847 113.455 169.54C113.455 169.244 113.389 168.987 113.259 168.768C113.128 168.55 112.943 168.379 112.705 168.257C112.469 168.135 112.19 168.074 111.869 168.074C111.568 168.074 111.284 168.129 111.017 168.24C110.753 168.348 110.537 168.506 110.369 168.713C110.202 168.918 110.111 169.165 110.097 169.455H109.074C109.091 168.997 109.229 168.597 109.487 168.253C109.746 167.906 110.084 167.636 110.501 167.443C110.922 167.25 111.384 167.153 111.886 167.153C112.426 167.153 112.889 167.263 113.276 167.482C113.662 167.697 113.959 167.983 114.166 168.338C114.374 168.693 114.477 169.077 114.477 169.489C114.477 169.98 114.348 170.399 114.089 170.746C113.834 171.092 113.486 171.332 113.045 171.466V171.534C113.597 171.625 114.027 171.859 114.337 172.237C114.646 172.612 114.801 173.077 114.801 173.631C114.801 174.105 114.672 174.531 114.413 174.909C114.158 175.284 113.808 175.58 113.365 175.795C112.922 176.011 112.418 176.119 111.852 176.119Z" fill="black"/>
</g>
<g id="fOne">
<path id="Rectangle 44" d="M137.944 3H178.055V195C178.055 199.418 174.474 203 170.055 203H145.944C141.526 203 137.944 199.418 137.944 195V3Z" fill="#F5E2F0"/>
<path id="4" d="M153.699 174.21V173.341L157.534 167.273H158.165V168.619H157.739L154.841 173.205V173.273H160.006V174.21H153.699ZM157.807 176V173.946V173.541V167.273H158.812V176H157.807Z" fill="black"/>
</g>
<g id="gOne">
<path id="Rectangle 40" d="M183.926 3H224.037V195C224.037 199.418 220.455 203 216.037 203H191.926C187.507 203 183.926 199.418 183.926 195V3Z" fill="#F5E2F0"/>
<path id="5" d="M204.631 176.119C204.131 176.119 203.68 176.02 203.28 175.821C202.879 175.622 202.558 175.349 202.317 175.003C202.075 174.656 201.943 174.261 201.92 173.818H202.943C202.983 174.213 203.162 174.54 203.48 174.798C203.801 175.054 204.185 175.182 204.631 175.182C204.989 175.182 205.307 175.098 205.585 174.93C205.866 174.763 206.087 174.533 206.246 174.24C206.408 173.945 206.489 173.611 206.489 173.239C206.489 172.858 206.405 172.518 206.237 172.22C206.072 171.919 205.845 171.682 205.555 171.509C205.266 171.335 204.935 171.247 204.562 171.244C204.295 171.241 204.021 171.283 203.74 171.368C203.459 171.45 203.227 171.557 203.045 171.688L202.057 171.568L202.585 167.273H207.119V168.21H203.472L203.165 170.784H203.216C203.395 170.642 203.619 170.524 203.889 170.43C204.159 170.337 204.44 170.29 204.733 170.29C205.267 170.29 205.743 170.418 206.161 170.673C206.581 170.926 206.911 171.273 207.149 171.713C207.391 172.153 207.511 172.656 207.511 173.222C207.511 173.778 207.386 174.276 207.136 174.713C206.889 175.148 206.548 175.491 206.114 175.744C205.679 175.994 205.185 176.119 204.631 176.119Z" fill="black"/>
</g>
<g id="aOne">
<path id="Rectangle 42" d="M229.907 3H270.018V195C270.018 199.418 266.437 203 262.018 203H237.907C233.489 203 229.907 199.418 229.907 195V3Z" fill="#F5E2F0"/>
<path id="6" d="M248.801 176.119C248.443 176.114 248.085 176.045 247.727 175.915C247.369 175.784 247.043 175.564 246.747 175.254C246.452 174.942 246.214 174.52 246.036 173.989C245.857 173.455 245.767 172.784 245.767 171.977C245.767 171.205 245.839 170.52 245.984 169.923C246.129 169.324 246.339 168.82 246.615 168.411C246.891 167.999 247.223 167.686 247.612 167.473C248.004 167.26 248.446 167.153 248.938 167.153C249.426 167.153 249.861 167.251 250.241 167.447C250.625 167.641 250.938 167.911 251.179 168.257C251.42 168.604 251.577 169.003 251.648 169.455H250.608C250.511 169.062 250.324 168.737 250.045 168.479C249.767 168.22 249.398 168.091 248.938 168.091C248.261 168.091 247.729 168.385 247.339 168.973C246.953 169.561 246.759 170.386 246.756 171.449H246.824C246.983 171.207 247.172 171.001 247.391 170.831C247.612 170.658 247.857 170.524 248.124 170.43C248.391 170.337 248.673 170.29 248.972 170.29C249.472 170.29 249.929 170.415 250.344 170.665C250.759 170.912 251.091 171.254 251.341 171.692C251.591 172.126 251.716 172.625 251.716 173.188C251.716 173.727 251.595 174.222 251.354 174.67C251.112 175.116 250.773 175.472 250.335 175.736C249.901 175.997 249.389 176.125 248.801 176.119ZM248.801 175.182C249.159 175.182 249.48 175.092 249.764 174.913C250.051 174.734 250.277 174.494 250.442 174.193C250.609 173.892 250.693 173.557 250.693 173.188C250.693 172.827 250.612 172.499 250.45 172.203C250.291 171.905 250.071 171.668 249.79 171.491C249.511 171.315 249.193 171.227 248.835 171.227C248.565 171.227 248.314 171.281 248.081 171.389C247.848 171.494 247.643 171.639 247.467 171.824C247.294 172.009 247.158 172.22 247.058 172.459C246.959 172.695 246.909 172.943 246.909 173.205C246.909 173.551 246.99 173.875 247.152 174.176C247.317 174.477 247.541 174.72 247.825 174.905C248.112 175.089 248.438 175.182 248.801 175.182Z" fill="black"/>
</g>
<g id="bOne">
<path id="Rectangle 45" d="M275.889 3H316V195C316 199.418 312.418 203 308 203H283.889C279.47 203 275.889 199.418 275.889 195V3Z" fill="#F5E2F0"/>
<path id="7" d="M294.176 176L298.08 168.278V168.21H293.58V167.273H299.17V168.261L295.284 176H294.176Z" fill="black"/>
</g>
<g id="cSharpOne">
<g id="Rectangle 48" filter="url(#filter0_d_130_209)">
<rect x="32.2847" y="3" width="21.5232" height="123.596" fill="#FFA8E7"/>
</g>
<path id="!" d="M43.25 61.2727L43.1648 67.5455H42.1761L42.0909 61.2727H43.25ZM42.6705 70.0682C42.4602 70.0682 42.2798 69.9929 42.1293 69.8423C41.9787 69.6918 41.9034 69.5114 41.9034 69.3011C41.9034 69.0909 41.9787 68.9105 42.1293 68.7599C42.2798 68.6094 42.4602 68.5341 42.6705 68.5341C42.8807 68.5341 43.0611 68.6094 43.2116 68.7599C43.3622 68.9105 43.4375 69.0909 43.4375 69.3011C43.4375 69.4403 43.402 69.5682 43.331 69.6847C43.2628 69.8011 43.1705 69.8949 43.054 69.9659C42.9403 70.0341 42.8125 70.0682 42.6705 70.0682Z" fill="black"/>
</g>
<g id="aSharpOne">
<g id="Rectangle 50" filter="url(#filter1_d_130_209)">
<rect x="262.192" y="3" width="21.5232" height="123.596" fill="#FFA8E7"/>
</g>
<path id="^" d="M272.659 62.0227H272.966V62.4489H272.659V62.0227ZM270.477 65.2273L272.233 61.5455H273.392L275.148 65.2273H274.142L272.761 62.2784H272.864L271.5 65.2273H270.477Z" fill="black"/>
</g>
<g id="dSharpOne">
<g id="Rectangle 46" filter="url(#filter2_d_130_209)">
<rect x="77.2874" y="3" width="21.5232" height="123.596" fill="#FFA8E7"/>
</g>
<path id="@" d="M88.9489 72.3011C88.0795 72.3011 87.3111 72.1818 86.6435 71.9432C85.9759 71.7074 85.4148 71.3594 84.9602 70.8991C84.5057 70.4389 84.1619 69.875 83.929 69.2074C83.696 68.5398 83.5795 67.7756 83.5795 66.9148C83.5795 66.0824 83.6974 65.3381 83.9332 64.6818C84.1719 64.0256 84.517 63.4688 84.9688 63.0114C85.4233 62.5511 85.9744 62.2003 86.6222 61.9588C87.2727 61.7173 88.0085 61.5966 88.8295 61.5966C89.6278 61.5966 90.3267 61.7273 90.9261 61.9886C91.5284 62.2472 92.0313 62.598 92.4347 63.0412C92.8409 63.4815 93.1449 63.9773 93.3466 64.5284C93.5511 65.0795 93.6534 65.6477 93.6534 66.233C93.6534 66.6449 93.6335 67.0625 93.5938 67.4858C93.554 67.9091 93.4702 68.2983 93.3423 68.6534C93.2145 69.0057 93.017 69.2898 92.75 69.5057C92.4858 69.7216 92.1278 69.8295 91.6761 69.8295C91.4773 69.8295 91.2585 69.7983 91.0199 69.7358C90.7812 69.6733 90.5696 69.5696 90.3849 69.4247C90.2003 69.2798 90.0909 69.0852 90.0568 68.8409H90.0057C89.9375 69.0057 89.8324 69.1619 89.6903 69.3097C89.5511 69.4574 89.3679 69.5753 89.1406 69.6634C88.9162 69.7514 88.642 69.7898 88.3182 69.7784C87.9489 69.7642 87.6236 69.6818 87.3423 69.5312C87.0611 69.3778 86.8253 69.1705 86.6349 68.9091C86.4474 68.6449 86.3054 68.3395 86.2088 67.9929C86.1151 67.6435 86.0682 67.267 86.0682 66.8636C86.0682 66.4801 86.125 66.1293 86.2386 65.8111C86.3523 65.4929 86.5099 65.2145 86.7116 64.9759C86.9162 64.7372 87.1548 64.5469 87.4276 64.4048C87.7031 64.2599 88 64.1705 88.3182 64.1364C88.6023 64.108 88.8608 64.1207 89.0938 64.1747C89.3267 64.2259 89.5185 64.304 89.669 64.4091C89.8196 64.5114 89.9148 64.625 89.9545 64.75H90.0057V64.2727H90.9091V68.125C90.9091 68.3636 90.9759 68.5739 91.1094 68.7557C91.2429 68.9375 91.4375 69.0284 91.6932 69.0284C91.983 69.0284 92.2045 68.929 92.358 68.7301C92.5142 68.5312 92.6207 68.2244 92.6776 67.8097C92.7372 67.3949 92.767 66.8636 92.767 66.2159C92.767 65.8352 92.7145 65.4602 92.6094 65.0909C92.5071 64.7187 92.3509 64.3707 92.1406 64.0469C91.9332 63.723 91.6705 63.4375 91.3523 63.1903C91.0341 62.9432 90.6605 62.75 90.2315 62.6108C89.8054 62.4687 89.321 62.3977 88.7784 62.3977C88.1108 62.3977 87.5128 62.5014 86.9844 62.7088C86.4588 62.9134 86.0114 63.2131 85.642 63.608C85.2756 64 84.9957 64.4773 84.8026 65.0398C84.6122 65.5994 84.517 66.2358 84.517 66.9489C84.517 67.6733 84.6122 68.3168 84.8026 68.8793C84.9957 69.4418 85.2798 69.9162 85.6548 70.3026C86.0327 70.6889 86.5 70.9815 87.0568 71.1804C87.6136 71.3821 88.2557 71.483 88.983 71.483C89.2955 71.483 89.6037 71.4531 89.9077 71.3935C90.2116 71.3338 90.4801 71.2685 90.7131 71.1974C90.946 71.1264 91.1136 71.0739 91.2159 71.0398L91.4545 71.8239C91.2784 71.8977 91.0483 71.9716 90.7642 72.0455C90.483 72.1193 90.1818 72.1804 89.8608 72.2287C89.5426 72.277 89.2386 72.3011 88.9489 72.3011ZM88.4545 68.9091C88.8352 68.9091 89.1435 68.8324 89.3793 68.679C89.6151 68.5256 89.7869 68.294 89.8949 67.9844C90.0028 67.6747 90.0568 67.2841 90.0568 66.8125C90.0568 66.3352 89.9972 65.9631 89.8778 65.696C89.7585 65.429 89.5824 65.2415 89.3494 65.1335C89.1165 65.0256 88.8295 64.9716 88.4886 64.9716C88.1648 64.9716 87.8878 65.0568 87.6577 65.2273C87.4304 65.3949 87.2557 65.6193 87.1335 65.9006C87.0142 66.179 86.9545 66.483 86.9545 66.8125C86.9545 67.1761 87.0028 67.5185 87.0994 67.8395C87.196 68.1577 87.3537 68.4162 87.5724 68.6151C87.7912 68.8111 88.0852 68.9091 88.4545 68.9091Z" fill="black"/>
</g>
<g id="fSharpOne">
<g id="Rectangle 49" filter="url(#filter3_d_130_209)">
<rect x="170.229" y="3" width="21.5232" height="123.596" fill="#FFA8E7"/>
</g>
<path id="$" d="M181.477 71.0909V60.1818H182.176V71.0909H181.477ZM183.83 63.4545C183.778 63.0227 183.571 62.6875 183.207 62.4489C182.844 62.2102 182.398 62.0909 181.869 62.0909C181.483 62.0909 181.145 62.1534 180.855 62.2784C180.568 62.4034 180.344 62.5753 180.182 62.794C180.023 63.0128 179.943 63.2614 179.943 63.5398C179.943 63.7727 179.999 63.973 180.109 64.1406C180.223 64.3054 180.368 64.4432 180.544 64.554C180.72 64.6619 180.905 64.7514 181.098 64.8224C181.291 64.8906 181.469 64.946 181.631 64.9886L182.517 65.2273C182.744 65.2869 182.997 65.3693 183.276 65.4744C183.557 65.5795 183.825 65.723 184.081 65.9048C184.339 66.0838 184.553 66.3139 184.72 66.5952C184.888 66.8764 184.972 67.2216 184.972 67.6307C184.972 68.1023 184.848 68.5284 184.601 68.9091C184.357 69.2898 183.999 69.5923 183.527 69.8168C183.058 70.0412 182.489 70.1534 181.818 70.1534C181.193 70.1534 180.652 70.0526 180.195 69.8509C179.74 69.6491 179.382 69.3679 179.121 69.0071C178.862 68.6463 178.716 68.2273 178.682 67.75H179.773C179.801 68.0795 179.912 68.3523 180.105 68.5682C180.301 68.7812 180.548 68.9403 180.847 69.0455C181.148 69.1477 181.472 69.1989 181.818 69.1989C182.222 69.1989 182.584 69.1335 182.905 69.0028C183.226 68.8693 183.48 68.6847 183.668 68.4489C183.855 68.2102 183.949 67.9318 183.949 67.6136C183.949 67.3239 183.868 67.0881 183.706 66.9062C183.544 66.7244 183.331 66.5767 183.067 66.4631C182.803 66.3494 182.517 66.25 182.21 66.1648L181.136 65.858C180.455 65.6619 179.915 65.3821 179.517 65.0185C179.119 64.6548 178.92 64.179 178.92 63.5909C178.92 63.1023 179.053 62.6761 179.317 62.3125C179.584 61.946 179.942 61.6619 180.391 61.4602C180.842 61.2557 181.347 61.1534 181.903 61.1534C182.466 61.1534 182.966 61.2543 183.403 61.456C183.841 61.6548 184.188 61.9276 184.443 62.2741C184.702 62.6207 184.838 63.0142 184.852 63.4545H183.83Z" fill="black"/>
</g>
<g id="gSharpOne">
<g id="Rectangle 47" filter="url(#filter4_d_130_209)">
<rect x="215.232" y="3" width="21.5232" height="123.596" fill="#FFA8E7"/>
</g>
<path id="%" d="M226.352 68.3636V67.9034C226.352 67.5852 226.418 67.294 226.548 67.0298C226.682 66.7628 226.875 66.5497 227.128 66.3906C227.384 66.2287 227.693 66.1477 228.057 66.1477C228.426 66.1477 228.736 66.2287 228.986 66.3906C229.236 66.5497 229.425 66.7628 229.553 67.0298C229.68 67.294 229.744 67.5852 229.744 67.9034V68.3636C229.744 68.6818 229.679 68.9744 229.548 69.2415C229.42 69.5057 229.23 69.7187 228.977 69.8807C228.727 70.0398 228.42 70.1193 228.057 70.1193C227.688 70.1193 227.376 70.0398 227.124 69.8807C226.871 69.7187 226.679 69.5057 226.548 69.2415C226.418 68.9744 226.352 68.6818 226.352 68.3636ZM227.222 67.9034V68.3636C227.222 68.6278 227.284 68.8651 227.409 69.0753C227.534 69.2827 227.75 69.3864 228.057 69.3864C228.355 69.3864 228.565 69.2827 228.688 69.0753C228.812 68.8651 228.875 68.6278 228.875 68.3636V67.9034C228.875 67.6392 228.815 67.4034 228.696 67.196C228.577 66.9858 228.364 66.8807 228.057 66.8807C227.759 66.8807 227.544 66.9858 227.413 67.196C227.286 67.4034 227.222 67.6392 227.222 67.9034ZM222.006 63.3693V62.9091C222.006 62.5909 222.071 62.2997 222.202 62.0355C222.335 61.7685 222.528 61.5554 222.781 61.3963C223.037 61.2344 223.347 61.1534 223.71 61.1534C224.08 61.1534 224.389 61.2344 224.639 61.3963C224.889 61.5554 225.078 61.7685 225.206 62.0355C225.334 62.2997 225.398 62.5909 225.398 62.9091V63.3693C225.398 63.6875 225.332 63.9801 225.202 64.2472C225.074 64.5114 224.884 64.7244 224.631 64.8864C224.381 65.0455 224.074 65.125 223.71 65.125C223.341 65.125 223.03 65.0455 222.777 64.8864C222.524 64.7244 222.332 64.5114 222.202 64.2472C222.071 63.9801 222.006 63.6875 222.006 63.3693ZM222.875 62.9091V63.3693C222.875 63.6335 222.938 63.8707 223.062 64.081C223.188 64.2884 223.403 64.392 223.71 64.392C224.009 64.392 224.219 64.2884 224.341 64.081C224.466 63.8707 224.528 63.6335 224.528 63.3693V62.9091C224.528 62.6449 224.469 62.4091 224.349 62.2017C224.23 61.9915 224.017 61.8864 223.71 61.8864C223.412 61.8864 223.197 61.9915 223.067 62.2017C222.939 62.4091 222.875 62.6449 222.875 62.9091ZM222.33 70L228.33 61.2727H229.301L223.301 70H222.33Z" fill="black"/>
</g>
</g>
<defs>
<filter id="filter0_d_130_209" x="24.2847" y="0" width="29.5232" height="131.596" filterUnits="userSpaceOnUse" color-interpolation-filters="sRGB">
<feFlood flood-opacity="0" result="BackgroundImageFix"/>
<feColorMatrix in="SourceAlpha" type="matrix" values="0 0 0 0 0 0 0 0 0 0 0 0 0 0 0 0 0 0 127 0" result="hardAlpha"/>
<feOffset dx="-4" dy="1"/>
<feGaussianBlur stdDeviation="2"/>
<feComposite in2="hardAlpha" operator="out"/>
<feColorMatrix type="matrix" values="0 0 0 0 0 0 0 0 0 0 0 0 0 0 0 0 0 0 0.25 0"/>
<feBlend mode="normal" in2="BackgroundImageFix" result="effect1_dropShadow_130_209"/>
<feBlend mode="normal" in="SourceGraphic" in2="effect1_dropShadow_130_209" result="shape"/>
</filter>
<filter id="filter1_d_130_209" x="254.192" y="0" width="29.5232" height="131.596" filterUnits="userSpaceOnUse" color-interpolation-filters="sRGB">
<feFlood flood-opacity="0" result="BackgroundImageFix"/>
<feColorMatrix in="SourceAlpha" type="matrix" values="0 0 0 0 0 0 0 0 0 0 0 0 0 0 0 0 0 0 127 0" result="hardAlpha"/>
<feOffset dx="-4" dy="1"/>
<feGaussianBlur stdDeviation="2"/>
<feComposite in2="hardAlpha" operator="out"/>
<feColorMatrix type="matrix" values="0 0 0 0 0 0 0 0 0 0 0 0 0 0 0 0 0 0 0.25 0"/>
<feBlend mode="normal" in2="BackgroundImageFix" result="effect1_dropShadow_130_209"/>
<feBlend mode="normal" in="SourceGraphic" in2="effect1_dropShadow_130_209" result="shape"/>
</filter>
<filter id="filter2_d_130_209" x="69.2874" y="0" width="29.5232" height="131.596" filterUnits="userSpaceOnUse" color-interpolation-filters="sRGB">
<feFlood flood-opacity="0" result="BackgroundImageFix"/>
<feColorMatrix in="SourceAlpha" type="matrix" values="0 0 0 0 0 0 0 0 0 0 0 0 0 0 0 0 0 0 127 0" result="hardAlpha"/>
<feOffset dx="-4" dy="1"/>
<feGaussianBlur stdDeviation="2"/>
<feComposite in2="hardAlpha" operator="out"/>
<feColorMatrix type="matrix" values="0 0 0 0 0 0 0 0 0 0 0 0 0 0 0 0 0 0 0.25 0"/>
<feBlend mode="normal" in2="BackgroundImageFix" result="effect1_dropShadow_130_209"/>
<feBlend mode="normal" in="SourceGraphic" in2="effect1_dropShadow_130_209" result="shape"/>
</filter>
<filter id="filter3_d_130_209" x="162.229" y="0" width="29.5232" height="131.596" filterUnits="userSpaceOnUse" color-interpolation-filters="sRGB">
<feFlood flood-opacity="0" result="BackgroundImageFix"/>
<feColorMatrix in="SourceAlpha" type="matrix" values="0 0 0 0 0 0 0 0 0 0 0 0 0 0 0 0 0 0 127 0" result="hardAlpha"/>
<feOffset dx="-4" dy="1"/>
<feGaussianBlur stdDeviation="2"/>
<feComposite in2="hardAlpha" operator="out"/>
<feColorMatrix type="matrix" values="0 0 0 0 0 0 0 0 0 0 0 0 0 0 0 0 0 0 0.25 0"/>
<feBlend mode="normal" in2="BackgroundImageFix" result="effect1_dropShadow_130_209"/>
<feBlend mode="normal" in="SourceGraphic" in2="effect1_dropShadow_130_209" result="shape"/>
</filter>
<filter id="filter4_d_130_209" x="207.232" y="0" width="29.5232" height="131.596" filterUnits="userSpaceOnUse" color-interpolation-filters="sRGB">
<feFlood flood-opacity="0" result="BackgroundImageFix"/>
<feColorMatrix in="SourceAlpha" type="matrix" values="0 0 0 0 0 0 0 0 0 0 0 0 0 0 0 0 0 0 127 0" result="hardAlpha"/>
<feOffset dx="-4" dy="1"/>
<feGaussianBlur stdDeviation="2"/>
<feComposite in2="hardAlpha" operator="out"/>
<feColorMatrix type="matrix" values="0 0 0 0 0 0 0 0 0 0 0 0 0 0 0 0 0 0 0.25 0"/>
<feBlend mode="normal" in2="BackgroundImageFix" result="effect1_dropShadow_130_209"/>
<feBlend mode="normal" in="SourceGraphic" in2="effect1_dropShadow_130_209" result="shape"/>
</filter>
</defs>
</svg>
