<svg width="316" height="203" viewBox="0 0 316 203" fill="none" xmlns="http://www.w3.org/2000/svg">
<g id="octaveTwo">
<g id="cTwo">
<path id="Rectangle 43" d="M0 3H40.1114V195C40.1114 199.418 36.5297 203 32.1114 203H7.99999C3.58171 203 0 199.418 0 195V3Z" fill="#F5E2F0"/>
<path id="8" d="M19.6989 176.119C19.1136 176.119 18.5966 176.016 18.1477 175.808C17.7017 175.598 17.3537 175.31 17.1037 174.943C16.8537 174.574 16.7301 174.153 16.733 173.682C16.7301 173.312 16.8026 172.972 16.9503 172.659C17.098 172.344 17.2997 172.081 17.5554 171.871C17.8139 171.658 18.1023 171.523 18.4205 171.466V171.415C18.0028 171.307 17.6705 171.072 17.4233 170.712C17.1761 170.348 17.054 169.935 17.0568 169.472C17.054 169.028 17.1662 168.632 17.3935 168.283C17.6207 167.933 17.9332 167.658 18.331 167.456C18.7315 167.254 19.1875 167.153 19.6989 167.153C20.2045 167.153 20.6563 167.254 21.054 167.456C21.4517 167.658 21.7642 167.933 21.9915 168.283C22.2216 168.632 22.3381 169.028 22.3409 169.472C22.3381 169.935 22.2116 170.348 21.9616 170.712C21.7145 171.072 21.3864 171.307 20.9773 171.415V171.466C21.2926 171.523 21.5767 171.658 21.8295 171.871C22.0824 172.081 22.2841 172.344 22.4347 172.659C22.5852 172.972 22.6619 173.312 22.6648 173.682C22.6619 174.153 22.5341 174.574 22.2812 174.943C22.0312 175.31 21.6832 175.598 21.2372 175.808C20.794 176.016 20.2813 176.119 19.6989 176.119ZM19.6989 175.182C20.0938 175.182 20.4347 175.118 20.7216 174.99C21.0085 174.862 21.2301 174.682 21.3864 174.449C21.5426 174.216 21.6222 173.943 21.625 173.631C21.6222 173.301 21.5369 173.01 21.3693 172.757C21.2017 172.504 20.973 172.305 20.6832 172.161C20.3963 172.016 20.0682 171.943 19.6989 171.943C19.3267 171.943 18.9943 172.016 18.7017 172.161C18.4119 172.305 18.1832 172.504 18.0156 172.757C17.8509 173.01 17.7699 173.301 17.7727 173.631C17.7699 173.943 17.8452 174.216 17.9986 174.449C18.1548 174.682 18.3778 174.862 18.6676 174.99C18.9574 175.118 19.3011 175.182 19.6989 175.182ZM19.6989 171.04C20.0114 171.04 20.2884 170.977 20.5298 170.852C20.7741 170.727 20.9659 170.553 21.1051 170.328C21.2443 170.104 21.3153 169.841 21.3182 169.54C21.3153 169.244 21.2457 168.987 21.1094 168.768C20.973 168.547 20.7841 168.376 20.5426 168.257C20.3011 168.135 20.0199 168.074 19.6989 168.074C19.3722 168.074 19.0866 168.135 18.8423 168.257C18.598 168.376 18.4091 168.547 18.2756 168.768C18.142 168.987 18.0767 169.244 18.0795 169.54C18.0767 169.841 18.1435 170.104 18.2798 170.328C18.419 170.553 18.6108 170.727 18.8551 170.852C19.0994 170.977 19.3807 171.04 19.6989 171.04Z" fill="black"/>
</g>
<g id="dTwo">
<path id="Rectangle 39" d="M45.9813 3H86.0927V195C86.0927 199.418 82.511 203 78.0927 203H53.9813C49.563 203 45.9813 199.418 45.9813 195V3Z" fill="#F5E2F0"/>
<path id="9" d="M66.6818 167.153C67.0398 167.156 67.3977 167.224 67.7557 167.358C68.1136 167.491 68.4403 167.713 68.7358 168.023C69.0313 168.33 69.2685 168.749 69.4474 169.28C69.6264 169.811 69.7159 170.477 69.7159 171.278C69.7159 172.054 69.642 172.743 69.4943 173.345C69.3494 173.945 69.1392 174.45 68.8636 174.862C68.5909 175.274 68.2585 175.587 67.8665 175.8C67.4773 176.013 67.0369 176.119 66.5455 176.119C66.0568 176.119 65.6207 176.023 65.2372 175.83C64.8565 175.634 64.544 175.362 64.2997 175.016C64.0582 174.666 63.9034 174.261 63.8352 173.801H64.875C64.9688 174.202 65.1548 174.533 65.4332 174.794C65.7145 175.053 66.0852 175.182 66.5455 175.182C67.2188 175.182 67.75 174.888 68.1392 174.3C68.5313 173.712 68.7273 172.881 68.7273 171.807H68.6591C68.5 172.045 68.3111 172.251 68.0923 172.425C67.8736 172.598 67.6307 172.732 67.3636 172.825C67.0966 172.919 66.8125 172.966 66.5114 172.966C66.0114 172.966 65.5526 172.842 65.1349 172.595C64.7202 172.345 64.3878 172.003 64.1378 171.568C63.8906 171.131 63.767 170.631 63.767 170.068C63.767 169.534 63.8864 169.045 64.125 168.602C64.3665 168.156 64.7045 167.801 65.1392 167.537C65.5767 167.273 66.0909 167.145 66.6818 167.153ZM66.6818 168.091C66.3239 168.091 66.0014 168.18 65.7145 168.359C65.4304 168.536 65.2045 168.774 65.0369 169.075C64.8722 169.374 64.7898 169.705 64.7898 170.068C64.7898 170.432 64.8693 170.763 65.0284 171.061C65.1903 171.357 65.4105 171.592 65.6889 171.768C65.9702 171.942 66.2898 172.028 66.6477 172.028C66.9176 172.028 67.169 171.976 67.402 171.871C67.6349 171.763 67.8381 171.616 68.0114 171.432C68.1875 171.244 68.3253 171.033 68.4247 170.797C68.5241 170.558 68.5739 170.31 68.5739 170.051C68.5739 169.71 68.4915 169.391 68.3267 169.092C68.1648 168.794 67.9403 168.553 67.6534 168.368C67.3693 168.183 67.0455 168.091 66.6818 168.091Z" fill="black"/>
</g>
<g id="eTwo">
<path id="Rectangle 41" d="M91.963 3H132.074V195C132.074 199.418 128.493 203 124.074 203H99.963C95.5447 203 91.963 199.418 91.963 195V3Z" fill="#F5E2F0"/>
<path id="0" d="M111.75 176.119C111.108 176.119 110.561 175.945 110.109 175.595C109.658 175.243 109.313 174.733 109.074 174.065C108.835 173.395 108.716 172.585 108.716 171.636C108.716 170.693 108.835 169.888 109.074 169.22C109.315 168.55 109.662 168.038 110.114 167.686C110.568 167.331 111.114 167.153 111.75 167.153C112.386 167.153 112.93 167.331 113.382 167.686C113.837 168.038 114.183 168.55 114.422 169.22C114.663 169.888 114.784 170.693 114.784 171.636C114.784 172.585 114.665 173.395 114.426 174.065C114.188 174.733 113.842 175.243 113.391 175.595C112.939 175.945 112.392 176.119 111.75 176.119ZM111.75 175.182C112.386 175.182 112.881 174.875 113.233 174.261C113.585 173.648 113.761 172.773 113.761 171.636C113.761 170.881 113.68 170.237 113.518 169.706C113.359 169.175 113.129 168.77 112.828 168.491C112.53 168.213 112.17 168.074 111.75 168.074C111.119 168.074 110.626 168.385 110.271 169.007C109.916 169.626 109.739 170.503 109.739 171.636C109.739 172.392 109.818 173.034 109.977 173.562C110.136 174.091 110.365 174.493 110.663 174.768C110.964 175.044 111.327 175.182 111.75 175.182Z" fill="black"/>
</g>
<g id="fTwo">
<path id="Rectangle 44" d="M137.944 3H178.055V195C178.055 199.418 174.474 203 170.055 203H145.944C141.526 203 137.944 199.418 137.944 195V3Z" fill="#F5E2F0"/>
<path id="q" d="M158.386 178.455V174.994H158.301C158.227 175.114 158.122 175.264 157.986 175.446C157.849 175.625 157.655 175.786 157.402 175.928C157.149 176.067 156.813 176.136 156.392 176.136C155.847 176.136 155.365 175.999 154.947 175.723C154.53 175.445 154.203 175.053 153.967 174.547C153.732 174.038 153.614 173.438 153.614 172.744C153.614 172.057 153.732 171.46 153.967 170.955C154.203 170.449 154.531 170.058 154.952 169.783C155.372 169.507 155.858 169.369 156.409 169.369C156.835 169.369 157.172 169.44 157.419 169.582C157.669 169.722 157.859 169.881 157.99 170.06C158.124 170.236 158.227 170.381 158.301 170.494H158.42V169.455H159.392V178.455H158.386ZM156.528 175.233C156.932 175.233 157.273 175.128 157.551 174.918C157.83 174.705 158.041 174.411 158.186 174.036C158.331 173.658 158.403 173.222 158.403 172.727C158.403 172.239 158.332 171.811 158.19 171.445C158.048 171.075 157.838 170.788 157.56 170.584C157.281 170.376 156.938 170.273 156.528 170.273C156.102 170.273 155.747 170.382 155.463 170.601C155.182 170.817 154.97 171.111 154.828 171.483C154.689 171.852 154.619 172.267 154.619 172.727C154.619 173.193 154.69 173.616 154.832 173.997C154.977 174.375 155.19 174.676 155.472 174.901C155.756 175.122 156.108 175.233 156.528 175.233Z" fill="black"/>
</g>
<g id="gTwo">
<path id="Rectangle 40" d="M183.926 3H224.037V195C224.037 199.418 220.455 203 216.037 203H191.926C187.507 203 183.926 199.418 183.926 195V3Z" fill="#F5E2F0"/>
<path id="w" d="M203.403 176L201.409 169.455H202.466L203.881 174.466H203.949L205.347 169.455H206.42L207.801 174.449H207.869L209.284 169.455H210.341L208.347 176H207.358L205.926 170.972H205.824L204.392 176H203.403Z" fill="black"/>
</g>
<g id="aTwo">
<path id="Rectangle 42" d="M229.907 3H270.018V195C270.018 199.418 266.437 203 262.018 203H237.907C233.489 203 229.907 199.418 229.907 195V3Z" fill="#F5E2F0"/>
<path id="e" d="M248.665 176.136C248.034 176.136 247.49 175.997 247.033 175.719C246.578 175.438 246.227 175.045 245.98 174.543C245.736 174.037 245.614 173.449 245.614 172.778C245.614 172.108 245.736 171.517 245.98 171.006C246.227 170.491 246.571 170.091 247.011 169.804C247.455 169.514 247.972 169.369 248.562 169.369C248.903 169.369 249.24 169.426 249.572 169.54C249.905 169.653 250.207 169.838 250.48 170.094C250.753 170.347 250.97 170.682 251.132 171.099C251.294 171.517 251.375 172.031 251.375 172.642V173.068H246.33V172.199H250.352C250.352 171.83 250.278 171.5 250.131 171.21C249.986 170.92 249.778 170.692 249.509 170.524C249.241 170.357 248.926 170.273 248.562 170.273C248.162 170.273 247.815 170.372 247.523 170.571C247.233 170.767 247.01 171.023 246.854 171.338C246.697 171.653 246.619 171.991 246.619 172.352V172.932C246.619 173.426 246.705 173.845 246.875 174.189C247.048 174.53 247.288 174.79 247.595 174.969C247.902 175.145 248.259 175.233 248.665 175.233C248.929 175.233 249.168 175.196 249.381 175.122C249.597 175.045 249.783 174.932 249.939 174.781C250.095 174.628 250.216 174.437 250.301 174.21L251.273 174.483C251.17 174.812 250.999 175.102 250.757 175.352C250.516 175.599 250.217 175.793 249.862 175.932C249.507 176.068 249.108 176.136 248.665 176.136Z" fill="black"/>
</g>
<g id="bTwo">
<path id="Rectangle 45" d="M275.889 3H316V195C316 199.418 312.418 203 308 203H283.889C279.47 203 275.889 199.418 275.889 195V3Z" fill="#F5E2F0"/>
<path id="r" d="M293.92 176V169.455H294.892V170.443H294.96C295.08 170.119 295.295 169.857 295.608 169.655C295.92 169.453 296.273 169.352 296.665 169.352C296.739 169.352 296.831 169.354 296.942 169.357C297.053 169.359 297.136 169.364 297.193 169.369V170.392C297.159 170.384 297.081 170.371 296.959 170.354C296.839 170.334 296.713 170.324 296.58 170.324C296.261 170.324 295.977 170.391 295.727 170.524C295.48 170.655 295.284 170.837 295.139 171.07C294.997 171.3 294.926 171.562 294.926 171.858V176H293.92Z" fill="black"/>
</g>
<g id="cSharpTwo">
<g id="Rectangle 48" filter="url(#filter0_d_140_87)">
<rect x="32.2847" y="3" width="21.5232" height="123.596" fill="#FFA8E7"/>
</g>
<path id="*" d="M43.5909 66.1818L43.6591 64.3068L42.0739 65.3125L41.6648 64.5966L43.3352 63.7273L41.6648 62.858L42.0739 62.142L43.6591 63.1477L43.5909 61.2727H44.4091L44.3409 63.1477L45.9261 62.142L46.3352 62.858L44.6648 63.7273L46.3352 64.5966L45.9261 65.3125L44.3409 64.3068L44.4091 66.1818H43.5909Z" fill="black"/>
</g>
<g id="aSharpTwo">
<g id="Rectangle 50" filter="url(#filter1_d_140_87)">
<rect x="262.192" y="3" width="21.5232" height="123.596" fill="#FFA8E7"/>
</g>
<path id="E" d="M271.057 70V61.2727H276.324V62.2102H272.114V65.1591H276.051V66.0966H272.114V69.0625H276.392V70H271.057Z" fill="black"/>
</g>
<g id="dSharpTwo">
<g id="Rectangle 46" filter="url(#filter2_d_140_87)">
<rect x="77.2874" y="3" width="21.5232" height="123.596" fill="#FFA8E7"/>
</g>
<path id="(" d="M84.2784 66.3182C84.2784 65.2443 84.4176 64.2571 84.696 63.3565C84.9773 62.4531 85.3778 61.6222 85.8977 60.8636H86.7841C86.5795 61.1449 86.3878 61.4915 86.2088 61.9034C86.0327 62.3125 85.8778 62.7628 85.7443 63.2543C85.6108 63.7429 85.5057 64.2486 85.429 64.7713C85.3551 65.294 85.3182 65.8097 85.3182 66.3182C85.3182 66.9943 85.3835 67.6804 85.5142 68.3764C85.6449 69.0724 85.821 69.7187 86.0426 70.3153C86.2642 70.9119 86.5114 71.3977 86.7841 71.7727H85.8977C85.3778 71.0142 84.9773 70.1847 84.696 69.2841C84.4176 68.3807 84.2784 67.392 84.2784 66.3182Z" fill="black"/>
</g>
<g id="fSharpTwo">
<g id="Rectangle 49" filter="url(#filter3_d_140_87)">
<rect x="170.229" y="3" width="21.5232" height="123.596" fill="#FFA8E7"/>
</g>
<path id="Q" d="M182.227 67.2727H183.386L184.358 68.5511L184.614 68.892L186.062 70.8182H184.903L183.949 69.5398L183.71 69.2159L182.227 67.2727ZM186.42 65.6364C186.42 66.5568 186.254 67.3523 185.922 68.0227C185.589 68.6932 185.134 69.2102 184.554 69.5739C183.974 69.9375 183.313 70.1193 182.568 70.1193C181.824 70.1193 181.162 69.9375 180.582 69.5739C180.003 69.2102 179.547 68.6932 179.214 68.0227C178.882 67.3523 178.716 66.5568 178.716 65.6364C178.716 64.7159 178.882 63.9205 179.214 63.25C179.547 62.5795 180.003 62.0625 180.582 61.6989C181.162 61.3352 181.824 61.1534 182.568 61.1534C183.313 61.1534 183.974 61.3352 184.554 61.6989C185.134 62.0625 185.589 62.5795 185.922 63.25C186.254 63.9205 186.42 64.7159 186.42 65.6364ZM185.398 65.6364C185.398 64.8807 185.271 64.2429 185.018 63.723C184.768 63.2031 184.429 62.8097 184 62.5426C183.574 62.2756 183.097 62.142 182.568 62.142C182.04 62.142 181.561 62.2756 181.132 62.5426C180.706 62.8097 180.366 63.2031 180.114 63.723C179.864 64.2429 179.739 64.8807 179.739 65.6364C179.739 66.392 179.864 67.0298 180.114 67.5497C180.366 68.0696 180.706 68.4631 181.132 68.7301C181.561 68.9972 182.04 69.1307 182.568 69.1307C183.097 69.1307 183.574 68.9972 184 68.7301C184.429 68.4631 184.768 68.0696 185.018 67.5497C185.271 67.0298 185.398 66.392 185.398 65.6364Z" fill="black"/>
</g>
<g id="gSharpTwo">
<g id="Rectangle 47" filter="url(#filter4_d_140_87)">
<rect x="215.232" y="3" width="21.5232" height="123.596" fill="#FFA8E7"/>
</g>
<path id="w_2" d="M223.403 70L221.409 63.4545H222.466L223.881 68.4659H223.949L225.347 63.4545H226.42L227.801 68.4489H227.869L229.284 63.4545H230.341L228.347 70H227.358L225.926 64.9716H225.824L224.392 70H223.403Z" fill="black"/>
</g>
</g>
<defs>
<filter id="filter0_d_140_87" x="24.2847" y="0" width="29.5232" height="131.596" filterUnits="userSpaceOnUse" color-interpolation-filters="sRGB">
<feFlood flood-opacity="0" result="BackgroundImageFix"/>
<feColorMatrix in="SourceAlpha" type="matrix" values="0 0 0 0 0 0 0 0 0 0 0 0 0 0 0 0 0 0 127 0" result="hardAlpha"/>
<feOffset dx="-4" dy="1"/>
<feGaussianBlur stdDeviation="2"/>
<feComposite in2="hardAlpha" operator="out"/>
<feColorMatrix type="matrix" values="0 0 0 0 0 0 0 0 0 0 0 0 0 0 0 0 0 0 0.25 0"/>
<feBlend mode="normal" in2="BackgroundImageFix" result="effect1_dropShadow_140_87"/>
<feBlend mode="normal" in="SourceGraphic" in2="effect1_dropShadow_140_87" result="shape"/>
</filter>
<filter id="filter1_d_140_87" x="254.192" y="0" width="29.5232" height="131.596" filterUnits="userSpaceOnUse" color-interpolation-filters="sRGB">
<feFlood flood-opacity="0" result="BackgroundImageFix"/>
<feColorMatrix in="SourceAlpha" type="matrix" values="0 0 0 0 0 0 0 0 0 0 0 0 0 0 0 0 0 0 127 0" result="hardAlpha"/>
<feOffset dx="-4" dy="1"/>
<feGaussianBlur stdDeviation="2"/>
<feComposite in2="hardAlpha" operator="out"/>
<feColorMatrix type="matrix" values="0 0 0 0 0 0 0 0 0 0 0 0 0 0 0 0 0 0 0.25 0"/>
<feBlend mode="normal" in2="BackgroundImageFix" result="effect1_dropShadow_140_87"/>
<feBlend mode="normal" in="SourceGraphic" in2="effect1_dropShadow_140_87" result="shape"/>
</filter>
<filter id="filter2_d_140_87" x="69.2874" y="0" width="29.5232" height="131.596" filterUnits="userSpaceOnUse" color-interpolation-filters="sRGB">
<feFlood flood-opacity="0" result="BackgroundImageFix"/>
<feColorMatrix in="SourceAlpha" type="matrix" values="0 0 0 0 0 0 0 0 0 0 0 0 0 0 0 0 0 0 127 0" result="hardAlpha"/>
<feOffset dx="-4" dy="1"/>
<feGaussianBlur stdDeviation="2"/>
<feComposite in2="hardAlpha" operator="out"/>
<feColorMatrix type="matrix" values="0 0 0 0 0 0 0 0 0 0 0 0 0 0 0 0 0 0 0.25 0"/>
<feBlend mode="normal" in2="BackgroundImageFix" result="effect1_dropShadow_140_87"/>
<feBlend mode="normal" in="SourceGraphic" in2="effect1_dropShadow_140_87" result="shape"/>
</filter>
<filter id="filter3_d_140_87" x="162.229" y="0" width="29.5232" height="131.596" filterUnits="userSpaceOnUse" color-interpolation-filters="sRGB">
<feFlood flood-opacity="0" result="BackgroundImageFix"/>
<feColorMatrix in="SourceAlpha" type="matrix" values="0 0 0 0 0 0 0 0 0 0 0 0 0 0 0 0 0 0 127 0" result="hardAlpha"/>
<feOffset dx="-4" dy="1"/>
<feGaussianBlur stdDeviation="2"/>
<feComposite in2="hardAlpha" operator="out"/>
<feColorMatrix type="matrix" values="0 0 0 0 0 0 0 0 0 0 0 0 0 0 0 0 0 0 0.25 0"/>
<feBlend mode="normal" in2="BackgroundImageFix" result="effect1_dropShadow_140_87"/>
<feBlend mode="normal" in="SourceGraphic" in2="effect1_dropShadow_140_87" result="shape"/>
</filter>
<filter id="filter4_d_140_87" x="207.232" y="0" width="29.5232" height="131.596" filterUnits="userSpaceOnUse" color-interpolation-filters="sRGB">
<feFlood flood-opacity="0" result="BackgroundImageFix"/>
<feColorMatrix in="SourceAlpha" type="matrix" values="0 0 0 0 0 0 0 0 0 0 0 0 0 0 0 0 0 0 127 0" result="hardAlpha"/>
<feOffset dx="-4" dy="1"/>
<feGaussianBlur stdDeviation="2"/>
<feComposite in2="hardAlpha" operator="out"/>
<feColorMatrix type="matrix" values="0 0 0 0 0 0 0 0 0 0 0 0 0 0 0 0 0 0 0.25 0"/>
<feBlend mode="normal" in2="BackgroundImageFix" result="effect1_dropShadow_140_87"/>
<feBlend mode="normal" in="SourceGraphic" in2="effect1_dropShadow_140_87" result="shape"/>
</filter>
</defs>
</svg>
